<svg fill="none" height="80" viewBox="0 0 187 80" width="187" xmlns="http://www.w3.org/2000/svg" xmlns:xlink="http://www.w3.org/1999/xlink"><clipPath id="a"><path d="m0 0h80v80h-80z"/></clipPath><g fill="#180026"><path d="m105.96 46.04h-6.88l-1.696 4.96h-4.384l8.064-22.56h3.232l8.064 22.56h-4.608zm-5.76-3.52h4.8l-1.664-4.992-.672-3.52h-.16l-.672 3.552z"/><path d="m114.199 35h3.04l.48 1.92h.128c.555-.8107 1.205-1.408 1.952-1.792.768-.384 1.696-.576 2.784-.576 2.005 0 3.509.64 4.512 1.92 1.003 1.2587 1.504 3.296 1.504 6.112 0 1.3653-.16 2.6027-.48 3.712-.32 1.088-.8 2.016-1.44 2.784-.619.768-1.387 1.3547-2.304 1.76-.896.4053-1.931.608-3.104.608-.661 0-1.205-.0533-1.632-.16-.427-.0853-.853-.2347-1.28-.448v6.56h-4.16zm7.136 3.072c-.811 0-1.451.2027-1.92.608-.448.4053-.8 1.0133-1.056 1.824v6.656c.299.2347.619.4267.96.576.363.128.832.192 1.408.192 1.195 0 2.091-.416 2.688-1.248.597-.8533.896-2.2507.896-4.192 0-1.408-.235-2.496-.704-3.264s-1.227-1.152-2.272-1.152z"/><path d="m140.568 51v-8.704c0-1.472-.138-2.5173-.416-3.136-.277-.6187-.853-.928-1.728-.928-.725 0-1.312.2027-1.76.608-.448.384-.789.8853-1.024 1.504v10.656h-4.16v-16h3.232l.48 2.112h.128c.491-.6827 1.11-1.28 1.856-1.792.768-.512 1.75-.768 2.944-.768 1.024 0 1.856.2133 2.496.64.662.4053 1.174 1.0987 1.536 2.08.491-.832 1.12-1.4933 1.888-1.984s1.696-.736 2.784-.736c.896 0 1.654.1067 2.272.32.64.2133 1.152.5867 1.536 1.12.406.512.704 1.2053.896 2.08s.288 1.984.288 3.328v9.6h-4.16v-8.992c0-1.2587-.138-2.1973-.416-2.816-.256-.64-.842-.96-1.76-.96-.746 0-1.344.2027-1.792.608-.426.4053-.746.96-.96 1.664v10.496z"/><path d="m163.054 43.992.576 2.496h.192l.416-2.528 2.432-8.96h4.288l-4.864 14.432c-.405 1.1947-.8 2.2827-1.184 3.264-.362 1.0027-.768 1.8667-1.216 2.592s-.949 1.28-1.504 1.664c-.533.4053-1.173.608-1.92.608-1.109 0-1.994-.1813-2.656-.544l.768-3.328c.32.128.64.192.96.192.491 0 .96-.2133 1.408-.64.47-.4053.822-1.152 1.056-2.24l-6.688-16h4.992z"/><path d="m172.511 35h3.04l.481 1.92h.128c.554-.8107 1.205-1.408 1.952-1.792.768-.384 1.696-.576 2.784-.576 2.005 0 3.509.64 4.512 1.92 1.002 1.2587 1.503 3.296 1.503 6.112 0 1.3653-.159 2.6027-.479 3.712-.32 1.088-.8 2.016-1.44 2.784-.619.768-1.387 1.3547-2.304 1.76-.897.4053-1.931.608-3.104.608-.662 0-1.206-.0533-1.633-.16-.426-.0853-.853-.2347-1.279-.448v6.56h-4.161zm7.136 3.072c-.81 0-1.45.2027-1.919.608-.448.4053-.8 1.0133-1.056 1.824v6.656c.298.2347.618.4267.96.576.362.128.831.192 1.407.192 1.195 0 2.091-.416 2.689-1.248.597-.8533.896-2.2507.896-4.192 0-1.408-.235-2.496-.704-3.264-.47-.768-1.227-1.152-2.273-1.152z"/></g><g clip-path="url(#a)"><path d="m8.20312 23.9435v31.8055c0 1.2354.5658 2.4707 1.69679 3.2654l26.22259 18.4198c2.3584 1.6565 5.5023 1.6565 7.8601 0l26.2232-18.4198c1.131-.7947 1.7157-2.016 1.7157-3.2507l-.0189-31.825z" fill="#29ce69"/><path d="m71.9131 41.9844-27.9108 19.5422c-1.1822.8301-2.561 1.2439-3.9398 1.2421v-38.8252l31.8403-.0048z" fill="#5ad6ff"/><path d="m44.0023 61.5266 13.4668-9.4287v15.8765l-13.4668 9.4599c-1.1822.83-2.561 1.2439-3.9398 1.242v-15.9076c1.3788.0018 2.7576-.412 3.9398-1.2421z" fill="#fd5c6f"/><path d="m57.4691 52.0979-13.4668 9.4287c-1.1822.8307-2.561 1.2445-3.9398 1.2421v-38.8252l17.4066-.0036z" fill="#f4e74d"/><path d="m40.0623 23.9435h-31.85918v31.8055c0 1.2354.5658 2.4707 1.69679 3.2654l26.22259 18.4199c1.1823.83 2.561 1.2438 3.9398 1.242z" fill="#5ad6ff"/><path d="m8.20312 41.9782 27.91938 19.5484c1.1823.8307 2.561 1.2445 3.9398 1.2421v-38.8252h-31.85918z" fill="#29ce69"/><path d="m22.6553 23.9423v44.0321l13.4668 9.4598c1.1823.8301 2.5611 1.2439 3.9398 1.2421v-54.7328z" fill="#ffcd00"/><path d="m36.1227 2.25342-26.22261 18.41988c-2.26197 1.5893-2.26197 4.9414 0 6.5307l26.22261 18.4199c2.3584 1.6565 5.5023 1.6565 7.8601 0l26.2232-18.4199c2.262-1.5893 2.262-4.9414 0-6.5307l-26.2232-18.41988c-2.3578-1.656497-5.5017-1.656497-7.8601 0z" fill="#ff8a98"/><path d="m36.1221 61.5266-13.4668-9.4287v15.8765l13.4668 9.4599c1.1823.83 2.5611 1.2439 3.9398 1.242v-15.9076c-1.3787.0018-2.7575-.412-3.9398-1.2421z" fill="#f6334c"/><path d="m22.6553 52.0979 13.4668 9.4287c1.1823.8307 2.5611 1.2445 3.9398 1.2421v-38.8252l-17.4066-.0012z" fill="#eedb00"/><path d="m70.2054 27.2041c2.262-1.5894 2.262-4.9414 0-6.5308l-2.6538-1.864-10.0952-7.0911-34.8011 24.4458 13.4668 9.4599c2.3584 1.6559 5.5017 1.6565 7.8601 0l23.6634-16.6217z" fill="#a4e7ff"/><path d="m57.4502 36.164-34.8011-24.4458-12.74901 8.9551c-2.26197 1.5894-2.26197 4.9414 0 6.5308l3.88121 2.7258 22.3414 15.694c2.3584 1.6565 5.5023 1.6559 7.8601 0l.5334-.3748z" fill="#73da8c"/><path d="m40.0522 23.9435-17.3969 12.2205 1.3324.9357 12.1344 8.5242c2.3584 1.6565 5.5017 1.6565 7.8601 0l13.4675-9.4599z" fill="#f9ee80"/><path d="m73.0745 23.9375c-.0006-1.6791-.8209-3.2581-2.1954-4.2231l-22.516-15.81666c-.5297-.37292 2.8852 2.66847 2.5129 3.19764-.3724.52979-4.3897-1.65161-3.8599-1.2793l8.4015 5.90212-15.365 10.7929-15.3651-10.7929 12.1088-8.50588c1.9477-1.3678 4.5655-1.3678 6.5131 0l3.7067 2.60376c.5292.37232 5.0049 2.87701 5.3772 2.34722.3717-.52917-3.5004-3.89324-4.0302-4.26556l-3.7066-2.60315c-2.7533-1.934209-6.4539-1.934209-9.2078 0l-26.22262 18.41981c-1.37452.9656-2.19483 2.5446-2.19483 4.2243v.0049 31.8054c0 1.6797.82031 3.2587 2.19483 4.2243l26.22262 18.4198c1.3775.9668 2.9907 1.4508 4.6039 1.4508 1.6137 0 3.2269-.484 4.6039-1.4508l26.2232-18.4198c1.3861-.9741 2.2137-2.5476 2.2137-4.2108zm-15.6177-10.7874 12.0752 8.4821c.7617.5352 1.1981 1.3757 1.1981 2.3065 0 .9302-.4364 1.7712-1.1981 2.3059l-12.0819 8.4869-15.3583-10.7879zm-48.08179 15.1172 12.10819 8.5053v13.0737l-12.10819-8.4778zm27.42129 16.3971-12.102-8.501 15.3583-10.788 15.3583 10.788-12.1021 8.501c-1.947 1.3684-4.5648 1.3684-6.5125 0zm-12.9687-6.2451 11.6211 8.1635c1.0455.7342 2.2272 1.1889 3.4412 1.3659v13.5255c-.7477-.1563-1.4582-.4596-2.0954-.9076l-12.9669-9.079zm17.4066 9.5264c1.2079-.1789 2.3828-.633 3.4223-1.3629l11.6211-8.1635v13.0817l-12.9493 9.0668c-.636.4468-1.3464.7507-2.0941.9064zm-30.6611-26.3129 12.0759-8.4827 15.365 10.7935-15.3583 10.7879-12.082-8.4863c-.76168-.5353-1.19808-1.3757-1.19808-2.3065-.00061-.9308.4364-1.7713 1.19748-2.3059zm.0006 36.4222c-.76168-.5347-1.19869-1.3752-1.19869-2.306v-11.5191l12.10819 8.4778v13.2664c0 .6469-.09.7421.5576.7421.647 0 1.41 1.2406 1.41.5937l.3768-12.961 11.6211 8.1372c1.0345.7269 2.2076 1.1908 3.4412 1.3703v13.5223c-.7386-.1544-1.4527-.4529-2.0936-.9033zm32.7351 18.4204c-.6354.4462-1.3428.744-2.0746.8997v-13.5187c1.2342-.1795 2.4066-.6434 3.44-1.3697l11.604-8.1244v13.003zm26.2232-18.4204-10.91 7.6635v-12.9974l10.3705-7.2614c.5304-.3717 2.1283-1.9608 1.7572-2.4912-.3711-.5298-2.5714.2-3.1018.5717l-9.0259 6.3195v-13.0871l12.1112-8.5071.0079 13.1091-3.0932 2.1656c-.5298.3711-3.3814 2.8311-3.0097 3.3615.2277.3253 3.645-.9928 4.3543-1.442l1.7498-1.225.0074 11.5284c0 .9137-.4444 1.7486-1.2177 2.2919z" fill="#000"/></g></svg>