<svg fill="none" height="80" width="187" xmlns="http://www.w3.org/2000/svg"><clipPath id="a"><path d="M0 0h80v80H0z"/></clipPath><g fill="#180026"><path d="M105.96 46.04h-6.88L97.38 51H93l8.06-22.56h3.24L112.36 51h-4.6zm-5.76-3.52h4.8l-1.66-5-.68-3.51h-.16l-.67 3.55zM114.2 35h3.04l.48 1.92h.13c.55-.81 1.2-1.4 1.95-1.8.77-.38 1.7-.57 2.78-.57 2 0 3.51.64 4.52 1.92 1 1.26 1.5 3.3 1.5 6.11 0 1.37-.16 2.6-.48 3.72a7.67 7.67 0 01-1.44 2.78 6.06 6.06 0 01-2.3 1.76c-.9.4-1.94.6-3.1.6a6.9 6.9 0 01-1.64-.15 5.1 5.1 0 01-1.28-.45v6.56h-4.16zm7.13 3.07c-.8 0-1.45.2-1.92.61-.44.4-.8 1.01-1.05 1.82v6.66c.3.23.62.43.96.58.36.12.83.19 1.4.19 1.2 0 2.1-.42 2.7-1.25.6-.85.9-2.25.9-4.2 0-1.4-.24-2.49-.71-3.26s-1.23-1.15-2.27-1.15zM140.57 51v-8.7c0-1.48-.14-2.52-.42-3.14-.27-.62-.85-.93-1.73-.93-.72 0-1.3.2-1.76.61-.44.38-.78.89-1.02 1.5V51h-4.16V35h3.23l.48 2.11h.13a7.45 7.45 0 011.86-1.79 5.2 5.2 0 012.94-.77c1.02 0 1.86.22 2.5.64a3.9 3.9 0 011.53 2.08 5.16 5.16 0 014.67-2.72c.9 0 1.66.1 2.28.32.64.22 1.15.59 1.53 1.12.4.51.7 1.2.9 2.08s.29 1.99.29 3.33V51h-4.16v-9c0-1.25-.14-2.19-.42-2.8-.26-.65-.84-.97-1.76-.97-.75 0-1.34.2-1.8.61-.42.4-.74.96-.95 1.66V51zM163.05 44l.58 2.49h.2l.4-2.53 2.44-8.96h4.29l-4.87 14.43c-.4 1.2-.8 2.28-1.18 3.27-.36 1-.77 1.86-1.22 2.59s-.95 1.28-1.5 1.66c-.53.4-1.17.61-1.92.61-1.1 0-2-.18-2.66-.54l.77-3.33c.32.13.64.19.96.19.5 0 .96-.21 1.41-.64.47-.4.82-1.15 1.06-2.24l-6.7-16h5zM172.51 35h3.04l.48 1.92h.13c.55-.81 1.2-1.4 1.95-1.8.77-.38 1.7-.57 2.79-.57 2 0 3.5.64 4.5 1.92 1.01 1.26 1.51 3.3 1.51 6.11 0 1.37-.16 2.6-.48 3.72a7.67 7.67 0 01-1.44 2.78 6.06 6.06 0 01-2.3 1.76c-.9.4-1.93.6-3.1.6a6.9 6.9 0 01-1.64-.15 5.09 5.09 0 01-1.28-.45v6.56h-4.16zm7.14 3.07c-.81 0-1.45.2-1.92.61-.45.4-.8 1.01-1.06 1.82v6.66c.3.23.62.43.96.58.36.12.83.19 1.4.19 1.2 0 2.1-.42 2.7-1.25.6-.85.9-2.25.9-4.2 0-1.4-.24-2.49-.71-3.26-.47-.76-1.23-1.15-2.27-1.15z"/></g><g clip-path="url(#a)"><path d="M8.2 23.94v31.8c0 1.24.57 2.48 1.7 3.27l26.22 18.42a6.84 6.84 0 007.86 0l26.23-18.42a3.96 3.96 0 001.71-3.25l-.02-31.82z" fill="#29ce69"/><path d="M71.91 41.98l-27.9 19.55a6.83 6.83 0 01-3.95 1.24V23.94H71.9z" fill="#5ad6ff"/><path d="M44 61.53l13.47-9.43v15.87L44 77.43a6.83 6.83 0 01-3.94 1.25V62.77c1.38 0 2.76-.41 3.94-1.24z" fill="#fd5c6f"/><path d="M57.47 52.1L44 61.53a6.82 6.82 0 01-3.94 1.24V23.94h17.4z" fill="#f4e74d"/><path d="M40.06 23.94H8.2v31.8c0 1.24.57 2.48 1.7 3.27l26.22 18.42a6.83 6.83 0 003.94 1.25z" fill="#5ad6ff"/><path d="M8.2 41.98l27.92 19.55a6.82 6.82 0 003.94 1.24V23.94H8.2z" fill="#29ce69"/><path d="M22.66 23.94v44.03l13.46 9.46a6.83 6.83 0 003.94 1.25V23.94z" fill="#ffcd00"/><path d="M36.12 2.25L9.9 20.67a4 4 0 000 6.53l26.22 18.42a6.84 6.84 0 007.86 0L70.21 27.2a4 4 0 000-6.53L43.98 2.25a6.84 6.84 0 00-7.86 0z" fill="#ff8a98"/><path d="M36.12 61.53L22.66 52.1v15.87l13.46 9.46a6.83 6.83 0 003.94 1.25V62.77a6.83 6.83 0 01-3.94-1.24z" fill="#f6334c"/><path d="M22.66 52.1l13.46 9.43a6.82 6.82 0 003.94 1.24V23.94h-17.4z" fill="#eedb00"/><path d="M70.2 27.2a4 4 0 000-6.53l-2.65-1.86-10.1-7.1-34.8 24.45 13.47 9.46a6.84 6.84 0 007.86 0L67.65 29z" fill="#a4e7ff"/><path d="M57.45 36.16l-34.8-24.44L9.9 20.67a4 4 0 000 6.53l3.88 2.73 22.34 15.7a6.84 6.84 0 007.86 0l.54-.38z" fill="#73da8c"/><path d="M40.05 23.94l-17.4 12.22 1.34.94 12.13 8.52a6.84 6.84 0 007.86 0l13.47-9.46z" fill="#f9ee80"/><path d="M73.07 23.94c0-1.68-.82-3.26-2.2-4.23L48.38 3.9c-.54-.38 2.88 2.67 2.5 3.2-.37.53-4.38-1.66-3.85-1.28l8.4 5.9-15.37 10.8-15.36-10.8 12.1-8.5a5.68 5.68 0 016.52 0l3.7 2.6c.54.37 5.01 2.87 5.38 2.34.37-.53-3.5-3.89-4.03-4.26l-3.7-2.6a8.03 8.03 0 00-9.21 0L9.23 19.7a5.17 5.17 0 00-2.2 4.23v31.8c0 1.69.82 3.27 2.2 4.23L35.45 78.4a8 8 0 009.2 0l26.23-18.42a5.16 5.16 0 002.21-4.2zM57.46 13.15l12.07 8.48c.76.54 1.2 1.38 1.2 2.3 0 .94-.44 1.78-1.2 2.31l-12.08 8.5-15.36-10.8zM9.38 28.27l12.1 8.5v13.08l-12.1-8.48zm27.42 16.4l-12.1-8.5 15.35-10.8 15.36 10.8-12.1 8.5a5.68 5.68 0 01-6.51 0zm-12.97-6.25l11.62 8.16a7.99 7.99 0 003.44 1.37v13.52a5.64 5.64 0 01-2.1-.9l-12.96-9.08zm17.4 9.53a7.98 7.98 0 003.43-1.37l11.62-8.16V51.5l-12.95 9.07c-.64.44-1.35.75-2.1.9zM10.57 21.63l12.08-8.48L38 23.95 22.66 34.72l-12.09-8.48a2.78 2.78 0 01-1.2-2.31c0-.93.44-1.77 1.2-2.3zm0 36.42a2.78 2.78 0 01-1.2-2.3V44.23l12.11 8.48v13.26c0 .65-.09.75.56.75s1.41 1.24 1.41.59l.38-12.96 11.62 8.14c1.03.72 2.2 1.19 3.44 1.37v13.52a5.64 5.64 0 01-2.1-.9zm32.74 18.43c-.64.44-1.34.74-2.08.9V63.86a7.96 7.96 0 003.44-1.37l11.6-8.13v13zm26.22-18.42l-10.9 7.66v-13l10.36-7.26c.53-.37 2.13-1.96 1.76-2.5-.37-.52-2.57.2-3.1.58l-9.03 6.32V36.77l12.11-8.5.01 13.1-3.1 2.17c-.52.37-3.37 2.83-3 3.36.23.33 3.64-1 4.35-1.44l1.75-1.23.01 11.53c0 .92-.44 1.75-1.22 2.3z" fill="#000"/></g></svg>