<svg fill="none" height="30" viewBox="0 0 96 30" width="96" xmlns="http://www.w3.org/2000/svg"><g fill="#000"><path d="m13.8702 16.792h-8.25596l-2.24 6.208h-2.623996l8.479996-22.751999h1.21596l8.512 22.751999h-2.784zm-7.39196-2.304h6.59196l-2.496-6.816-.79995-3.392h-.03201l-.8 3.456z"/><path d="m22.317 7h1.76l.48 1.92h.128c.4907-.74667 1.12-1.312 1.888-1.696.7893-.40533 1.6853-.608 2.688-.608 2.1333 0 3.7227.62933 4.768 1.888s1.568 3.3173 1.568 6.176c0 1.344-.1813 2.56-.544 3.648-.3413 1.0667-.832 1.9733-1.472 2.72s-1.4187 1.3227-2.336 1.728c-.896.4053-1.8987.608-3.008.608-.7893 0-1.4187-.0533-1.888-.16-.448-.0853-.9387-.2453-1.472-.48v6.656h-2.56zm6.464 1.856c-1.088 0-1.952.288-2.592.864-.6187.5547-1.056 1.408-1.312 2.56v7.936c.384.2987.8213.5333 1.312.704.4907.1493 1.1413.224 1.952.224 1.472 0 2.6347-.544 3.488-1.632.8747-1.1093 1.312-2.7307 1.312-4.864 0-.8747-.0747-1.664-.224-2.368-.1493-.7253-.3947-1.3333-.736-1.824-.32-.512-.7467-.90667-1.28-1.184-.512-.27733-1.152-.416-1.92-.416z"/><path d="m49.6455 23v-9.056c0-.8533-.0427-1.5893-.128-2.208-.064-.64-.2027-1.1733-.416-1.6-.2133-.42667-.5227-.74667-.928-.96-.384-.21333-.896-.32-1.536-.32-.9813 0-1.8027.29867-2.464.896-.64.5973-1.088 1.344-1.344 2.24v11.008h-2.56v-16h1.792l.48 1.952h.128c.576-.68267 1.2373-1.23733 1.984-1.664.768-.448 1.76-.672 2.976-.672 1.024 0 1.856.20267 2.496.608.6613.384 1.1733 1.06667 1.536 2.048.4907-.832 1.1627-1.48267 2.016-1.952.8747-.46933 1.856-.704 2.944-.704.896 0 1.6533.10667 2.272.32.6187.192 1.1307.544 1.536 1.056s.6933 1.20533.864 2.08c.192.8747.288 1.984.288 3.328v9.6h-2.56v-9.632c0-.768-.0427-1.4293-.128-1.984-.064-.576-.2133-1.0453-.448-1.408-.2133-.384-.5227-.66133-.928-.832-.384-.192-.896-.288-1.536-.288-1.0667 0-1.8987.29867-2.496.896-.5973.5973-1.024 1.4507-1.28 2.56v10.688z"/><path d="m71.5822 17.368.896 3.072h.16l.704-3.104 3.104-10.336h2.592l-4.736 14.368c-.3626 1.0453-.7253 2.0587-1.088 3.04-.3413.9813-.7253 1.856-1.152 2.624-.4266.768-.9066 1.376-1.44 1.824-.5333.4693-1.152.704-1.856.704-.768 0-1.3973-.1067-1.888-.32l.448-2.208c.2774.1067.544.16.8.16.5974 0 1.1734-.32 1.728-.96.5547-.6187 1.0134-1.696 1.376-3.232l-6.432-16h2.944z"/><path d="m82.4245 7h1.76l.48 1.92h.128c.4907-.74667 1.12-1.312 1.888-1.696.7893-.40533 1.6853-.608 2.688-.608 2.1333 0 3.7227.62933 4.768 1.888s1.568 3.3173 1.568 6.176c0 1.344-.1813 2.56-.544 3.648-.3413 1.0667-.832 1.9733-1.472 2.72s-1.4187 1.3227-2.336 1.728c-.896.4053-1.8987.608-3.008.608-.7893 0-1.4187-.0533-1.888-.16-.448-.0853-.9387-.2453-1.472-.48v6.656h-2.56zm6.464 1.856c-1.088 0-1.952.288-2.592.864-.6187.5547-1.056 1.408-1.312 2.56v7.936c.384.2987.8213.5333 1.312.704.4907.1493 1.1413.224 1.952.224 1.472 0 2.6347-.544 3.488-1.632.8747-1.1093 1.312-2.7307 1.312-4.864 0-.8747-.0747-1.664-.224-2.368-.1493-.7253-.3947-1.3333-.736-1.824-.32-.512-.7467-.90667-1.28-1.184-.512-.27733-1.152-.416-1.92-.416z"/></g></svg>